<svg xmlns="http://www.w3.org/2000/svg" xmlns:xlink="http://www.w3.org/1999/xlink" width="1920" height="1080" viewBox="0 0 1920 1080">
  <defs>
    <clipPath id="clip-Web_1920_1">
      <rect width="1920" height="1080"/>
    </clipPath>
  </defs>
  <g id="Web_1920_1" data-name="Web 1920 – 1" clip-path="url(#clip-Web_1920_1)">
    <g id="noun_Umbrella_171844" transform="translate(101.764 251.398) rotate(-48)">
      <g id="Groupe_1" data-name="Groupe 1" transform="translate(7.957 4.501)">
        <path id="Tracé_1" data-name="Tracé 1" d="M50,6.944h-.007c-8.591,5.7-15.8,19.743-13.368,36.069a44,44,0,0,1,13.371-1.867,43.914,43.914,0,0,1,13.372,1.867C65.812,26.689,58.6,12.642,50,6.944Z" transform="translate(72.758 -4.501)" fill="none"/>
        <path id="Tracé_2" data-name="Tracé 2" d="M133.9,7.551c0-.022.015-.039.015-.061a3.211,3.211,0,0,0-6.407,0,.465.465,0,0,0,.015.061C61.306,8.84,7.957,50.015,7.957,100.482v1.93l2.161-.673c10.054-3.133,24.569-4.933,39.824-4.933s29.767,1.8,39.821,4.933l.561.174.558-.174c9.379-2.913,22.592-4.652,36.626-4.884v130.2h6.4V96.853c14.063.232,27.273,1.971,36.623,4.886l.561.174.558-.174c10.089-3.133,24.616-4.933,39.856-4.933,15.222,0,29.738,1.8,39.826,4.933l2.158.67v-1.927C253.492,50.015,200.128,8.84,133.9,7.551Zm35.858,91.138c-10.281-2.9-24.336-4.566-39.047-4.566-14.682,0-28.736,1.666-39.044,4.566-7.1-39.928,13.946-74.28,39.032-88.213a.077.077,0,0,0,.012,0l.009,0C155.834,24.411,176.9,58.766,169.757,98.689Z" transform="translate(-7.957 -4.501)" fill="#f1ff45"/>
      </g>
    </g>
    <g id="noun_Cocktail_172468" transform="matrix(0.914, 0.407, -0.407, 0.914, 1196.655, 12.323)">
      <path id="Tracé_3" data-name="Tracé 3" d="M209.334,6.841,202.626,2.2l-41.59,39.963h11.27ZM178.208,52.476H31.972c3.22-7.477,11-10.313,21.466-10.313H91l8.586-8.25C80,15.091,47.8,15.091,28.216,33.913a47.366,47.366,0,0,0,0,68.582L50.487,80.579l37.029,35.58c14.758,14.18,20.124,21.657,20.124,31.97v74.512c0,7.219-4.83,12.376-10.733,12.376H70.879c-7.781,0-14.221,6.188-14.221,13.665H169.622c0-7.477-6.44-13.665-14.221-13.665H129.373c-5.9,0-10.733-5.157-10.733-12.376V148.13c0-10.055,5.1-17.532,20.124-31.97l44.542-42.8C194.844,61.758,191.356,52.476,178.208,52.476ZM165.865,69.493l-41.858,40.221a2.667,2.667,0,0,1-3.757,0,2.426,2.426,0,0,1,0-3.61l41.858-40.221a2.667,2.667,0,0,1,3.757,0A2.426,2.426,0,0,1,165.865,69.493Z" transform="translate(0 0)" fill="#407bff"/>
    </g>
  </g>
</svg>
