<svg xmlns="http://www.w3.org/2000/svg" xmlns:xlink="http://www.w3.org/1999/xlink" width="1920" height="3080" viewBox="0 0 1920 3080">
  <defs>
    <clipPath id="clip-Web_1920_1">
      <rect width="1920" height="3080"/>
    </clipPath>
  </defs>
  <g id="Web_1920_1" data-name="Web 1920 – 1" clip-path="url(#clip-Web_1920_1)">
    <rect width="1920" height="3080" fill="#222"/>
    <g id="noun_Cocktail_172468" transform="matrix(0.883, -0.469, 0.469, 0.883, 159.345, 478.331)">
      <path id="Tracé_1" data-name="Tracé 1" d="M266.4,7.165,257.733,2.2l-53.71,42.753h14.554ZM226.2,55.986H37.348c4.158-8,14.207-11.033,27.721-11.033h48.512l11.089-8.826c-25.3-20.135-66.878-20.135-92.174,0s-25.3,53.234,0,73.37L61.258,86.051l47.819,38.064c19.058,15.17,25.989,23.169,25.989,34.2v79.714c0,7.723-6.237,13.24-13.861,13.24H87.593c-10.049,0-18.365,6.62-18.365,14.619H215.112c0-8-8.316-14.619-18.365-14.619H163.134c-7.623,0-13.861-5.517-13.861-13.24V158.318c0-10.757,6.584-18.756,25.989-34.2l57.522-45.787C247.684,65.916,243.18,55.986,226.2,55.986Zm-15.94,18.2L156.2,117.22a3.969,3.969,0,0,1-4.851,0,2.313,2.313,0,0,1,0-3.862l54.057-43.029a3.969,3.969,0,0,1,4.851,0A2.313,2.313,0,0,1,210.26,74.191Z" transform="translate(96.943 -320.088)" fill="#8855fd"/>
    </g>
    <g id="noun_Cocktail_172468-2" data-name="noun_Cocktail_172468" transform="matrix(-0.883, -0.469, 0.469, -0.883, 1595.916, 351.54)">
      <path id="Tracé_1-2" data-name="Tracé 1" d="M252.871,258.725l-8.663,4.965L190.5,220.937h14.554Zm-40.2-48.821H23.823c4.158,8,14.207,11.033,27.721,11.033h48.512l11.089,8.826c-25.3,20.135-66.878,20.135-92.174,0s-25.3-53.234,0-73.37l28.761,23.445,47.819-38.064c19.058-15.17,25.989-23.169,25.989-34.2V27.858c0-7.723-6.237-13.24-13.861-13.24H74.068C64.019,14.619,55.7,8,55.7,0H201.587c0,8-8.316,14.619-18.365,14.619H149.609c-7.623,0-13.861,5.517-13.861,13.24v79.714c0,10.757,6.584,18.756,25.989,34.2l57.522,45.787C234.159,199.974,229.655,209.9,212.675,209.9Zm-15.94-18.2L142.679,148.67a3.969,3.969,0,0,0-4.851,0,2.313,2.313,0,0,0,0,3.862l54.057,43.029a3.969,3.969,0,0,0,4.851,0A2.313,2.313,0,0,0,196.735,191.7Z" transform="translate(0 0)" fill="#8855fd"/>
    </g>
    <g id="noun_Cocktail_172468-3" data-name="noun_Cocktail_172468" transform="translate(333.814 739.578) rotate(-15)">
      <path id="Tracé_1-3" data-name="Tracé 1" d="M172.629,5.8l-5.451-3.6L133.384,33.236h9.157ZM147.338,41.245H28.514c2.616-5.807,8.939-8.009,17.442-8.009H76.48l6.977-6.407c-15.916-14.617-42.079-14.617-57.995,0a35.675,35.675,0,0,0,0,53.262l18.1-17.02L73.645,90.7C85.637,101.715,90,107.522,90,115.531V173.4c0,5.606-3.924,9.611-8.721,9.611H60.128c-6.323,0-11.555,4.806-11.555,10.612h91.789c0-5.807-5.233-10.612-11.555-10.612H107.657c-4.8,0-8.721-4-8.721-9.611V115.531c0-7.809,4.142-13.616,16.352-24.829L151.48,57.464C160.856,48.453,158.021,41.245,147.338,41.245ZM137.309,54.46,103.3,85.7a2.239,2.239,0,0,1-3.052,0,1.829,1.829,0,0,1,0-2.8l34.012-31.236a2.239,2.239,0,0,1,3.052,0A1.829,1.829,0,0,1,137.309,54.46Z" transform="translate(-18.888)" fill="#8855fd"/>
    </g>
    <g id="noun_Cocktail_172468-4" data-name="noun_Cocktail_172468" transform="matrix(-0.966, -0.259, 0.259, -0.966, 1496.887, 927.99)">
      <path id="Tracé_1-4" data-name="Tracé 1" d="M159.1,187.817l-5.451,3.6-33.794-31.036h9.157Zm-25.291-35.441H14.989c2.616,5.807,8.939,8.009,17.442,8.009H62.955l6.977,6.407c-15.916,14.617-42.079,14.617-57.995,0a35.675,35.675,0,0,1,0-53.262l18.1,17.02L60.12,102.919C72.112,91.906,76.472,86.1,76.472,78.09V20.223c0-5.606-3.924-9.611-8.721-9.611H46.6C40.28,10.612,35.048,5.807,35.048,0h91.789c0,5.807-5.233,10.612-11.555,10.612H94.132c-4.8,0-8.721,4-8.721,9.611V78.09c0,7.809,4.142,13.616,16.352,24.829l36.192,33.238C147.331,145.168,144.5,152.376,133.813,152.376Zm-10.029-13.215L89.772,107.925a2.239,2.239,0,0,0-3.052,0,1.829,1.829,0,0,0,0,2.8l34.012,31.236a2.239,2.239,0,0,0,3.052,0A1.829,1.829,0,0,0,123.784,139.161Z" transform="translate(0 0)" fill="#8855fd"/>
    </g>
    <g id="noun_Cocktail_172468-5" data-name="noun_Cocktail_172468" transform="matrix(-0.966, -0.259, 0.259, -0.966, 1496.887, 1246.99)">
      <path id="Tracé_1-5" data-name="Tracé 1" d="M159.1,187.817l-5.451,3.6-33.794-31.036h9.157Zm-25.291-35.441H14.989c2.616,5.807,8.939,8.009,17.442,8.009H62.955l6.977,6.407c-15.916,14.617-42.079,14.617-57.995,0a35.675,35.675,0,0,1,0-53.262l18.1,17.02L60.12,102.919C72.112,91.906,76.472,86.1,76.472,78.09V20.223c0-5.606-3.924-9.611-8.721-9.611H46.6C40.28,10.612,35.048,5.807,35.048,0h91.789c0,5.807-5.233,10.612-11.555,10.612H94.132c-4.8,0-8.721,4-8.721,9.611V78.09c0,7.809,4.142,13.616,16.352,24.829l36.192,33.238C147.331,145.168,144.5,152.376,133.813,152.376Zm-10.029-13.215L89.772,107.925a2.239,2.239,0,0,0-3.052,0,1.829,1.829,0,0,0,0,2.8l34.012,31.236a2.239,2.239,0,0,0,3.052,0A1.829,1.829,0,0,0,123.784,139.161Z" transform="translate(0 0)" fill="#8855fd"/>
      <g id="noun_Cocktail_172468-6" data-name="noun_Cocktail_172468" transform="matrix(-0.866, 0.5, -0.5, -0.866, 1172.206, -119.034)">
        <path id="Tracé_1-6" data-name="Tracé 1" d="M172.629,5.8l-5.451-3.6L133.384,33.236h9.157ZM147.338,41.245H28.514c2.616-5.807,8.939-8.009,17.442-8.009H76.48l6.977-6.407c-15.916-14.617-42.079-14.617-57.995,0a35.675,35.675,0,0,0,0,53.262l18.1-17.02L73.645,90.7C85.637,101.715,90,107.522,90,115.531V173.4c0,5.606-3.924,9.611-8.721,9.611H60.128c-6.323,0-11.555,4.806-11.555,10.612h91.789c0-5.807-5.233-10.612-11.555-10.612H107.657c-4.8,0-8.721-4-8.721-9.611V115.531c0-7.809,4.142-13.616,16.352-24.829L151.48,57.464C160.856,48.453,158.021,41.245,147.338,41.245ZM137.309,54.46,103.3,85.7a2.239,2.239,0,0,1-3.052,0,1.829,1.829,0,0,1,0-2.8l34.012-31.236a2.239,2.239,0,0,1,3.052,0A1.829,1.829,0,0,1,137.309,54.46Z" transform="translate(-18.888)" fill="#8855fd"/>
      </g>
    </g>
    <g id="noun_Cocktail_172468-7" data-name="noun_Cocktail_172468" transform="matrix(-0.966, -0.259, 0.259, -0.966, 1496.887, 927.99)">
      <path id="Tracé_1-7" data-name="Tracé 1" d="M159.1,187.817l-5.451,3.6-33.794-31.036h9.157Zm-25.291-35.441H14.989c2.616,5.807,8.939,8.009,17.442,8.009H62.955l6.977,6.407c-15.916,14.617-42.079,14.617-57.995,0a35.675,35.675,0,0,1,0-53.262l18.1,17.02L60.12,102.919C72.112,91.906,76.472,86.1,76.472,78.09V20.223c0-5.606-3.924-9.611-8.721-9.611H46.6C40.28,10.612,35.048,5.807,35.048,0h91.789c0,5.807-5.233,10.612-11.555,10.612H94.132c-4.8,0-8.721,4-8.721,9.611V78.09c0,7.809,4.142,13.616,16.352,24.829l36.192,33.238C147.331,145.168,144.5,152.376,133.813,152.376Zm-10.029-13.215L89.772,107.925a2.239,2.239,0,0,0-3.052,0,1.829,1.829,0,0,0,0,2.8l34.012,31.236a2.239,2.239,0,0,0,3.052,0A1.829,1.829,0,0,0,123.784,139.161Z" transform="translate(0 0)" fill="#8855fd"/>
      <g id="noun_Cocktail_172468-8" data-name="noun_Cocktail_172468" transform="matrix(-0.866, 0.5, -0.5, -0.866, 1172.206, -119.034)">
        <path id="Tracé_1-8" data-name="Tracé 1" d="M172.629,5.8l-5.451-3.6L133.384,33.236h9.157ZM147.338,41.245H28.514c2.616-5.807,8.939-8.009,17.442-8.009H76.48l6.977-6.407c-15.916-14.617-42.079-14.617-57.995,0a35.675,35.675,0,0,0,0,53.262l18.1-17.02L73.645,90.7C85.637,101.715,90,107.522,90,115.531V173.4c0,5.606-3.924,9.611-8.721,9.611H60.128c-6.323,0-11.555,4.806-11.555,10.612h91.789c0-5.807-5.233-10.612-11.555-10.612H107.657c-4.8,0-8.721-4-8.721-9.611V115.531c0-7.809,4.142-13.616,16.352-24.829L151.48,57.464C160.856,48.453,158.021,41.245,147.338,41.245ZM137.309,54.46,103.3,85.7a2.239,2.239,0,0,1-3.052,0,1.829,1.829,0,0,1,0-2.8l34.012-31.236a2.239,2.239,0,0,1,3.052,0A1.829,1.829,0,0,1,137.309,54.46Z" transform="translate(-18.888)" fill="#8855fd"/>
      </g>
    </g>
    <g id="noun_Cocktail_172468-9" data-name="noun_Cocktail_172468" transform="matrix(-0.966, -0.259, 0.259, -0.966, 1496.887, 1246.99)">
      <path id="Tracé_1-9" data-name="Tracé 1" d="M159.1,187.817l-5.451,3.6-33.794-31.036h9.157Zm-25.291-35.441H14.989c2.616,5.807,8.939,8.009,17.442,8.009H62.955l6.977,6.407c-15.916,14.617-42.079,14.617-57.995,0a35.675,35.675,0,0,1,0-53.262l18.1,17.02L60.12,102.919C72.112,91.906,76.472,86.1,76.472,78.09V20.223c0-5.606-3.924-9.611-8.721-9.611H46.6C40.28,10.612,35.048,5.807,35.048,0h91.789c0,5.807-5.233,10.612-11.555,10.612H94.132c-4.8,0-8.721,4-8.721,9.611V78.09c0,7.809,4.142,13.616,16.352,24.829l36.192,33.238C147.331,145.168,144.5,152.376,133.813,152.376Zm-10.029-13.215L89.772,107.925a2.239,2.239,0,0,0-3.052,0,1.829,1.829,0,0,0,0,2.8l34.012,31.236a2.239,2.239,0,0,0,3.052,0A1.829,1.829,0,0,0,123.784,139.161Z" transform="translate(-69.203 -393.497)" fill="#8855fd"/>
      <g id="noun_Cocktail_172468-10" data-name="noun_Cocktail_172468" transform="matrix(-0.866, 0.5, -0.5, -0.866, 1053.741, -499.331)">
        <path id="Tracé_1-10" data-name="Tracé 1" d="M172.629,5.8l-5.451-3.6L133.384,33.236h9.157ZM147.338,41.245H28.514c2.616-5.807,8.939-8.009,17.442-8.009H76.48l6.977-6.407c-15.916-14.617-42.079-14.617-57.995,0a35.675,35.675,0,0,0,0,53.262l18.1-17.02L73.645,90.7C85.637,101.715,90,107.522,90,115.531V173.4c0,5.606-3.924,9.611-8.721,9.611H60.128c-6.323,0-11.555,4.806-11.555,10.612h91.789c0-5.807-5.233-10.612-11.555-10.612H107.657c-4.8,0-8.721-4-8.721-9.611V115.531c0-7.809,4.142-13.616,16.352-24.829L151.48,57.464C160.856,48.453,158.021,41.245,147.338,41.245ZM137.309,54.46,103.3,85.7a2.239,2.239,0,0,1-3.052,0,1.829,1.829,0,0,1,0-2.8l34.012-31.236a2.239,2.239,0,0,1,3.052,0A1.829,1.829,0,0,1,137.309,54.46Z" transform="translate(-18.888)" fill="#8855fd"/>
      </g>
    </g>
    <g id="noun_Cocktail_172468-11" data-name="noun_Cocktail_172468" transform="matrix(-0.966, -0.259, 0.259, -0.966, 1506.887, 1581.99)">
      <path id="Tracé_1-11" data-name="Tracé 1" d="M159.1,187.817l-5.451,3.6-33.794-31.036h9.157Zm-25.291-35.441H14.989c2.616,5.807,8.939,8.009,17.442,8.009H62.955l6.977,6.407c-15.916,14.617-42.079,14.617-57.995,0a35.675,35.675,0,0,1,0-53.262l18.1,17.02L60.12,102.919C72.112,91.906,76.472,86.1,76.472,78.09V20.223c0-5.606-3.924-9.611-8.721-9.611H46.6C40.28,10.612,35.048,5.807,35.048,0h91.789c0,5.807-5.233,10.612-11.555,10.612H94.132c-4.8,0-8.721,4-8.721,9.611V78.09c0,7.809,4.142,13.616,16.352,24.829l36.192,33.238C147.331,145.168,144.5,152.376,133.813,152.376Zm-10.029-13.215L89.772,107.925a2.239,2.239,0,0,0-3.052,0,1.829,1.829,0,0,0,0,2.8l34.012,31.236a2.239,2.239,0,0,0,3.052,0A1.829,1.829,0,0,0,123.784,139.161Z" transform="translate(-69.203 -393.497)" fill="#8855fd"/>
      <g id="noun_Cocktail_172468-12" data-name="noun_Cocktail_172468" transform="matrix(-0.866, 0.5, -0.5, -0.866, 1053.741, -499.331)">
        <path id="Tracé_1-12" data-name="Tracé 1" d="M172.629,5.8l-5.451-3.6L133.384,33.236h9.157ZM147.338,41.245H28.514c2.616-5.807,8.939-8.009,17.442-8.009H76.48l6.977-6.407c-15.916-14.617-42.079-14.617-57.995,0a35.675,35.675,0,0,0,0,53.262l18.1-17.02L73.645,90.7C85.637,101.715,90,107.522,90,115.531V173.4c0,5.606-3.924,9.611-8.721,9.611H60.128c-6.323,0-11.555,4.806-11.555,10.612h91.789c0-5.807-5.233-10.612-11.555-10.612H107.657c-4.8,0-8.721-4-8.721-9.611V115.531c0-7.809,4.142-13.616,16.352-24.829L151.48,57.464C160.856,48.453,158.021,41.245,147.338,41.245ZM137.309,54.46,103.3,85.7a2.239,2.239,0,0,1-3.052,0,1.829,1.829,0,0,1,0-2.8l34.012-31.236a2.239,2.239,0,0,1,3.052,0A1.829,1.829,0,0,1,137.309,54.46Z" transform="translate(-18.888)" fill="#8855fd"/>
      </g>
    </g>
    <g id="noun_Cocktail_172468-13" data-name="noun_Cocktail_172468" transform="matrix(-0.966, -0.259, 0.259, -0.966, 1496.887, 1953.99)">
      <path id="Tracé_1-13" data-name="Tracé 1" d="M159.1,187.817l-5.451,3.6-33.794-31.036h9.157Zm-25.291-35.441H14.989c2.616,5.807,8.939,8.009,17.442,8.009H62.955l6.977,6.407c-15.916,14.617-42.079,14.617-57.995,0a35.675,35.675,0,0,1,0-53.262l18.1,17.02L60.12,102.919C72.112,91.906,76.472,86.1,76.472,78.09V20.223c0-5.606-3.924-9.611-8.721-9.611H46.6C40.28,10.612,35.048,5.807,35.048,0h91.789c0,5.807-5.233,10.612-11.555,10.612H94.132c-4.8,0-8.721,4-8.721,9.611V78.09c0,7.809,4.142,13.616,16.352,24.829l36.192,33.238C147.331,145.168,144.5,152.376,133.813,152.376Zm-10.029-13.215L89.772,107.925a2.239,2.239,0,0,0-3.052,0,1.829,1.829,0,0,0,0,2.8l34.012,31.236a2.239,2.239,0,0,0,3.052,0A1.829,1.829,0,0,0,123.784,139.161Z" transform="translate(-69.203 -393.497)" fill="#8855fd"/>
      <g id="noun_Cocktail_172468-14" data-name="noun_Cocktail_172468" transform="matrix(-0.866, 0.5, -0.5, -0.866, 1053.741, -499.331)">
        <path id="Tracé_1-14" data-name="Tracé 1" d="M172.629,5.8l-5.451-3.6L133.384,33.236h9.157ZM147.338,41.245H28.514c2.616-5.807,8.939-8.009,17.442-8.009H76.48l6.977-6.407c-15.916-14.617-42.079-14.617-57.995,0a35.675,35.675,0,0,0,0,53.262l18.1-17.02L73.645,90.7C85.637,101.715,90,107.522,90,115.531V173.4c0,5.606-3.924,9.611-8.721,9.611H60.128c-6.323,0-11.555,4.806-11.555,10.612h91.789c0-5.807-5.233-10.612-11.555-10.612H107.657c-4.8,0-8.721-4-8.721-9.611V115.531c0-7.809,4.142-13.616,16.352-24.829L151.48,57.464C160.856,48.453,158.021,41.245,147.338,41.245ZM137.309,54.46,103.3,85.7a2.239,2.239,0,0,1-3.052,0,1.829,1.829,0,0,1,0-2.8l34.012-31.236a2.239,2.239,0,0,1,3.052,0A1.829,1.829,0,0,1,137.309,54.46Z" transform="translate(-18.888)" fill="#8855fd"/>
      </g>
    </g>
  </g>
</svg>
